<svg width="25" height="21" viewBox="0 0 25 21" fill="none"
  xmlns="http://www.w3.org/2000/svg">
  <path fill-rule="evenodd" clip-rule="evenodd" d="M8 19C8.55228 19 9 18.5523 9 18C9 17.4477 8.55228 17 8 17C7.44772 17 7 17.4477 7 18C7 18.5523 7.44772 19 8 19ZM8 21C9.65685 21 11 19.6569 11 18C11 16.3431 9.65685 15 8 15C6.34315 15 5 16.3431 5 18C5 19.6569 6.34315 21 8 21Z" fill="currentColor"/>
  <path fill-rule="evenodd" clip-rule="evenodd" d="M22 19C22.5523 19 23 18.5523 23 18C23 17.4477 22.5523 17 22 17C21.4477 17 21 17.4477 21 18C21 18.5523 21.4477 19 22 19ZM22 21C23.6569 21 25 19.6569 25 18C25 16.3431 23.6569 15 22 15C20.3431 15 19 16.3431 19 18C19 19.6569 20.3431 21 22 21Z" fill="currentColor"/>
  <path fill-rule="evenodd" clip-rule="evenodd" d="M0.5 1C0.5 0.447715 0.947715 0 1.5 0H6C6.49765 0 6.91957 0.36593 6.98995 0.858579L7.30274 3.04813L24.0568 4.00162C24.346 4.01807 24.6138 4.15911 24.791 4.38825C24.9682 4.61738 25.0374 4.91209 24.9806 5.19612L22.9806 15.1961C22.8723 15.7377 22.3454 16.0889 21.8039 15.9806C21.2623 15.8723 20.9111 15.3454 21.0194 14.8039L21.0802 14.5H8.93872L8.98995 14.8586C9.06805 15.4053 8.68816 15.9118 8.14142 15.9899C7.59469 16.0681 7.08816 15.6882 7.01005 15.1414L5.1327 2H1.5C0.947715 2 0.5 1.55228 0.5 1ZM8.65301 12.5H21.4802L22.7936 5.93296L7.59127 5.06779L8.65301 12.5Z" fill="currentColor"/>
</svg>
  