<svg width="25" height="24" viewBox="0 0 25 24" fill="none"
  xmlns="http://www.w3.org/2000/svg">
  <mask id="path-1-inside-1_0_1" fill="white">
    <path fill-rule="evenodd" clip-rule="evenodd" d="M23.5474 14.6003C22.4673 14.2251 21.6906 13.2084 21.6906 11.9999C21.6906 10.7915 22.4673 9.77483 23.5461 9.3996C23.873 9.28648 24.0744 8.94023 23.9806 8.60777C23.7061 7.63661 23.3157 6.71649 22.8273 5.85845C22.6646 5.57151 22.3073 5.46529 22.0024 5.58944C21.4713 5.8074 20.8574 5.86396 20.2215 5.70118C19.2917 5.46115 18.5316 4.70381 18.2861 3.77541C18.1178 3.13671 18.1743 2.52007 18.3909 1.98621C18.5137 1.68272 18.4074 1.32543 18.1205 1.16265C17.2694 0.681208 16.3561 0.29495 15.396 0.0231902C15.0622 -0.0706153 14.7173 0.129411 14.6042 0.456351C14.229 1.53649 13.2123 2.31315 12.0038 2.31315C10.7968 2.31315 9.77872 1.53649 9.40487 0.45773C9.29038 0.130791 8.94412 -0.0706153 8.61167 0.0231902C7.63498 0.299089 6.70935 0.692244 5.84716 1.18472C5.56988 1.34336 5.45263 1.691 5.57402 1.98759C5.77681 2.48558 5.83889 3.05394 5.70921 3.64712C5.49539 4.62104 4.72425 5.43632 3.75999 5.69429C3.12818 5.86396 2.5212 5.81016 1.99424 5.60048C1.69075 5.47908 1.33484 5.58669 1.17344 5.87086C0.686479 6.72891 0.297462 7.65041 0.024322 8.62157C-0.0694835 8.95127 0.127784 9.29338 0.449206 9.41064C1.51279 9.79414 2.27428 10.8039 2.27428 11.9999C2.27428 13.196 1.51279 14.2058 0.447826 14.5893C0.126404 14.7051 -0.0694835 15.0472 0.0229425 15.3769C0.267113 16.2419 0.605089 17.0682 1.02032 17.8462C1.18448 18.1525 1.56522 18.2573 1.88112 18.1125C2.70192 17.7359 3.73378 17.7483 4.78357 18.4408C4.94497 18.547 5.09396 18.696 5.20018 18.856C5.92717 19.9582 5.90648 21.0356 5.47332 21.873C5.31468 22.1806 5.4071 22.5641 5.70507 22.7393C6.60726 23.269 7.58394 23.687 8.61442 23.9767C8.94688 24.0705 9.289 23.8719 9.40074 23.5449C9.77182 22.4606 10.7926 21.6785 12.0038 21.6785C13.215 21.6785 14.2359 22.4606 14.6069 23.5449C14.7187 23.8705 15.0608 24.0705 15.3933 23.9767C16.4099 23.6911 17.3742 23.2787 18.2681 22.7586C18.5688 22.5834 18.6599 22.1958 18.4985 21.8882C18.0598 21.0494 18.0336 19.9665 18.762 18.8602C18.8682 18.7001 19.0172 18.5498 19.1786 18.4436C20.2436 17.7386 21.2851 17.7359 22.11 18.1263C22.4259 18.2753 22.8108 18.1718 22.9763 17.8642C23.3957 17.0861 23.7337 16.2584 23.9806 15.3907C24.0744 15.0583 23.8744 14.7134 23.5474 14.6003Z"/>
  </mask>
  <path d="M23.5461 9.3996L22.8921 7.50953L22.889 7.51061L23.5461 9.3996ZM23.9806 8.60777L25.9054 8.06466L25.9052 8.06375L23.9806 8.60777ZM22.8273 5.85845L21.0878 6.84532L21.0891 6.84771L22.8273 5.85845ZM22.0024 5.58944L21.2481 3.73714L21.2431 3.73919L22.0024 5.58944ZM20.2215 5.70118L19.7215 7.6377L19.7255 7.63872L20.2215 5.70118ZM18.2861 3.77541L16.3521 4.28501L16.3525 4.2868L18.2861 3.77541ZM18.3909 1.98621L20.2442 2.73806L20.2449 2.73625L18.3909 1.98621ZM18.1205 1.16265L19.1074 -0.576916L19.1052 -0.578159L18.1205 1.16265ZM15.396 0.0231902L15.9407 -1.90121L15.937 -1.90224L15.396 0.0231902ZM14.6042 0.456351L16.4934 1.11264L16.4942 1.1103L14.6042 0.456351ZM9.40487 0.45773L11.2946 -0.197158L11.2925 -0.203325L9.40487 0.45773ZM8.61167 0.0231902L8.06856 -1.90166L8.06797 -1.90149L8.61167 0.0231902ZM5.84716 1.18472L4.85518 -0.551935L4.85395 -0.551231L5.84716 1.18472ZM5.57402 1.98759L7.42634 1.23332L7.42498 1.22999L5.57402 1.98759ZM5.70921 3.64712L7.66269 4.076L7.66307 4.07424L5.70921 3.64712ZM3.75999 5.69429L3.24312 3.76223L3.24125 3.76273L3.75999 5.69429ZM1.99424 5.60048L1.25146 7.45744L1.25481 7.45877L1.99424 5.60048ZM1.17344 5.87086L-0.565638 4.88313L-0.565965 4.88371L1.17344 5.87086ZM0.024322 8.62157L1.94798 9.16889L1.94962 9.16306L0.024322 8.62157ZM0.449206 9.41064L-0.236227 11.2895L-0.229183 11.2921L0.449206 9.41064ZM0.447826 14.5893L-0.229785 12.7075L-0.23047 12.7078L0.447826 14.5893ZM0.0229425 15.3769L-1.90282 15.9168L-1.90183 15.9203L0.0229425 15.3769ZM1.02032 17.8462L-0.744133 18.7879L-0.742408 18.7911L1.02032 17.8462ZM1.88112 18.1125L2.7147 19.9305L2.71517 19.9303L1.88112 18.1125ZM4.78357 18.4408L3.68229 20.1103L3.68408 20.1115L4.78357 18.4408ZM5.20018 18.856L6.86973 17.7548L6.86649 17.7499L5.20018 18.856ZM5.47332 21.873L3.69692 20.9541L3.69576 20.9563L5.47332 21.873ZM5.70507 22.7393L4.69138 24.4634L4.69242 24.464L5.70507 22.7393ZM8.61442 23.9767L9.15754 22.0519L9.15569 22.0513L8.61442 23.9767ZM9.40074 23.5449L7.50849 22.8973L7.50821 22.8981L9.40074 23.5449ZM14.6069 23.5449L12.7147 24.1925L12.7153 24.1942L14.6069 23.5449ZM15.3933 23.9767L14.8524 22.0512L14.8501 22.0519L15.3933 23.9767ZM18.2681 22.7586L19.2739 24.4873L19.2749 24.4867L18.2681 22.7586ZM18.4985 21.8882L16.7263 22.8151L16.7275 22.8174L18.4985 21.8882ZM18.762 18.8602L17.0957 17.7541L17.0915 17.7604L18.762 18.8602ZM19.1786 18.4436L20.2781 20.1142L20.2825 20.1113L19.1786 18.4436ZM22.11 18.1263L21.2545 19.9341L21.2569 19.9352L22.11 18.1263ZM22.9763 17.8642L21.2158 16.9152L21.2151 16.9164L22.9763 17.8642ZM23.9806 15.3907L25.9042 15.9382L25.9054 15.9339L23.9806 15.3907ZM24.2037 12.711C23.8935 12.6033 23.6906 12.3208 23.6906 11.9999H19.6906C19.6906 14.096 21.0411 15.8469 22.8911 16.4895L24.2037 12.711ZM23.6906 11.9999C23.6906 11.6787 23.894 11.3961 24.2031 11.2886L22.889 7.51061C21.0406 8.15355 19.6906 9.90437 19.6906 11.9999H23.6906ZM24.2 11.2897C25.4289 10.8645 26.3146 9.51485 25.9054 8.06466L22.0558 9.15088C21.8342 8.36561 22.317 7.7085 22.8921 7.50954L24.2 11.2897ZM25.9052 8.06375C25.5855 6.93269 25.1314 5.86344 24.5655 4.86918L21.0891 6.84771C21.5 7.56954 21.8267 8.34053 22.056 9.1518L25.9052 8.06375ZM24.5669 4.87158C23.8623 3.6295 22.3946 3.27025 21.2481 3.73715L22.7567 7.44174C22.22 7.66033 21.4669 7.51352 21.0878 6.84531L24.5669 4.87158ZM21.2431 3.73919C21.1082 3.79455 20.9344 3.8192 20.7174 3.76365L19.7255 7.63872C20.7804 7.90873 21.8344 7.82026 22.7617 7.43969L21.2431 3.73919ZM20.7214 3.76467C20.494 3.70597 20.2807 3.49503 20.2196 3.26402L16.3525 4.2868C16.7825 5.91259 18.0894 7.21633 19.7215 7.63769L20.7214 3.76467ZM20.22 3.26581C20.1641 3.05366 20.1869 2.87935 20.2442 2.73806L16.5376 1.23435C16.1618 2.16079 16.0714 3.21975 16.3521 4.28501L20.22 3.26581ZM20.2449 2.73625C20.7082 1.59108 20.3471 0.126404 19.1074 -0.576915L17.1336 2.90222C16.4678 2.52446 16.3191 1.77436 16.5369 1.23617L20.2449 2.73625ZM19.1052 -0.578159C18.1195 -1.13568 17.059 -1.58468 15.9407 -1.90121L14.8513 1.94759C15.6533 2.17459 16.4192 2.4981 17.1358 2.90346L19.1052 -0.578159ZM15.937 -1.90224C14.4924 -2.30817 13.1414 -1.43248 12.7141 -0.197596L16.4942 1.1103C16.2932 1.6913 15.6319 2.16694 14.855 1.94862L15.937 -1.90224ZM12.7149 -0.199942C12.6072 0.110303 12.3247 0.313148 12.0038 0.313148V4.31315C14.0999 4.31315 15.8508 2.96269 16.4934 1.11264L12.7149 -0.199942ZM12.0038 0.313148C11.6829 0.313148 11.4007 0.10905 11.2946 -0.197155L7.51513 1.11262C8.1567 2.96394 9.91062 4.31315 12.0038 4.31315V0.313148ZM11.2925 -0.203325C10.8651 -1.42366 9.52043 -2.31131 8.06856 -1.90166L9.15478 1.94804C8.36782 2.17008 7.71566 1.68524 7.51728 1.11879L11.2925 -0.203325ZM8.06797 -1.90149C6.93067 -1.58022 5.85484 -1.12294 4.85518 -0.551934L6.83914 2.92138C7.56385 2.50743 8.3393 2.1784 9.15536 1.94787L8.06797 -1.90149ZM4.85395 -0.551231C3.6929 0.113055 3.22718 1.53365 3.72307 2.74519L7.42498 1.22999C7.67807 1.84834 7.44687 2.57368 6.84037 2.92068L4.85395 -0.551231ZM3.72171 2.74186C3.77472 2.87206 3.79715 3.02881 3.75535 3.22L7.66307 4.07424C7.88062 3.07906 7.77889 2.09911 7.42634 1.23332L3.72171 2.74186ZM3.75574 3.21824C3.70034 3.47056 3.47679 3.69972 3.24312 3.76223L4.27686 7.62634C5.97172 7.17292 7.29044 5.77152 7.66269 4.076L3.75574 3.21824ZM3.24125 3.76273C3.03646 3.81773 2.87051 3.79664 2.73366 3.74219L1.25481 7.45877C2.1719 7.82369 3.2199 7.9102 4.27873 7.62584L3.24125 3.76273ZM2.73702 3.74353C1.59221 3.2856 0.134393 3.6506 -0.565638 4.88313L2.91252 6.85859C2.53529 7.52277 1.78929 7.67257 1.25146 7.45743L2.73702 3.74353ZM-0.565965 4.88371C-1.1307 5.87879 -1.58304 6.94961 -1.90098 8.08008L1.94962 9.16306C2.17796 8.3512 2.50365 7.57902 2.91284 6.85801L-0.565965 4.88371ZM-1.89933 8.07425C-2.31032 9.51877 -1.43483 10.8523 -0.236222 11.2895L1.13463 7.53176C1.6904 7.73451 2.17136 8.38376 1.94798 9.16889L-1.89933 8.07425ZM-0.229183 11.2921C0.0746709 11.4016 0.274275 11.6818 0.274275 11.9999H4.27427C4.27427 9.92608 2.95092 8.18664 1.1276 7.52921L-0.229183 11.2921ZM0.274275 11.9999C0.274275 12.3177 0.0751983 12.5977 -0.229785 12.7075L1.12544 16.471C2.95039 15.8138 4.27427 14.0743 4.27427 11.9999H0.274275ZM-0.23047 12.7078C-1.44526 13.1457 -2.30404 14.4856 -1.90282 15.9168L1.9487 14.8371C2.16507 15.6089 1.69807 16.2645 1.12612 16.4707L-0.23047 12.7078ZM-1.90183 15.9203C-1.61702 16.9292 -1.22402 17.8887 -0.74413 18.7879L2.78476 16.9046C2.4342 16.2477 2.15124 15.5546 1.94772 14.8336L-1.90183 15.9203ZM-0.742408 18.7911C-0.0215264 20.136 1.55362 20.4629 2.7147 19.9305L1.04754 16.2945C1.57681 16.0518 2.39048 16.169 2.78304 16.9014L-0.742408 18.7911ZM2.71517 19.9303C2.82474 19.88 2.94208 19.8568 3.07391 19.8683C3.20443 19.8796 3.40932 19.9302 3.68229 20.1103L5.88486 16.7713C4.28423 15.7155 2.52256 15.6177 1.04707 16.2947L2.71517 19.9303ZM3.68408 20.1115C3.64469 20.0855 3.61835 20.0624 3.60008 20.0442C3.58181 20.0259 3.55918 20.0002 3.53387 19.9621L6.86649 17.7499C6.61242 17.3672 6.27121 17.0256 5.88307 16.7701L3.68408 20.1115ZM3.53063 19.9572C3.72054 20.2451 3.76758 20.4569 3.7756 20.5869C3.78374 20.719 3.75634 20.8392 3.69693 20.9541L7.24971 22.7919C8.02785 21.2877 7.98038 19.4387 6.86973 17.7548L3.53063 19.9572ZM3.69576 20.9563C3.09801 22.1154 3.3917 23.6992 4.69138 24.4634L6.71877 21.0152C7.42251 21.429 7.53135 22.2458 7.25087 22.7897L3.69576 20.9563ZM4.69242 24.464C5.74198 25.0802 6.87703 25.5658 8.07316 25.9021L9.15569 22.0513C8.29086 21.8082 7.47255 21.4578 6.71773 21.0146L4.69242 24.464ZM8.07131 25.9015C9.51773 26.3097 10.8695 25.4315 11.2933 24.1917L7.50821 22.8981C7.70844 22.3123 8.37604 21.8314 9.15754 22.0519L8.07131 25.9015ZM11.293 24.1925C11.3986 23.884 11.6822 23.6785 12.0038 23.6785V19.6785C9.90312 19.6785 8.14506 21.0373 7.50849 22.8973L11.293 24.1925ZM12.0038 23.6785C12.3255 23.6785 12.6091 23.884 12.7147 24.1925L16.4992 22.8973C15.8626 21.0373 14.1046 19.6785 12.0038 19.6785V23.6785ZM12.7153 24.1942C13.1379 25.4256 14.4856 26.3109 15.9364 25.9015L14.8501 22.0519C15.636 21.8301 16.2994 22.3154 16.4986 22.8957L12.7153 24.1942ZM15.9341 25.9022C17.1167 25.57 18.2369 25.0906 19.2739 24.4873L17.2624 21.0299C16.5115 21.4667 15.7032 21.8123 14.8524 22.0512L15.9341 25.9022ZM19.2749 24.4867C20.5942 23.7182 20.876 22.1149 20.2695 20.959L16.7275 22.8174C16.4438 22.2767 16.5435 21.4487 17.2614 21.0305L19.2749 24.4867ZM20.2707 20.9612C20.2098 20.8448 20.1816 20.7228 20.1893 20.5898C20.1968 20.4592 20.2432 20.2474 20.4325 19.9599L17.0915 17.7604C15.9764 19.4542 15.9401 21.312 16.7263 22.8151L20.2707 20.9612ZM20.4283 19.9662C20.4045 20.0021 20.3833 20.0264 20.3655 20.0442C20.3479 20.0619 20.3205 20.0863 20.2781 20.1142L18.0791 16.7729C17.6855 17.032 17.346 17.3769 17.0957 17.7541L20.4283 19.9662ZM20.2825 20.1113C20.5603 19.9274 20.7663 19.8781 20.8949 19.8677C21.025 19.8572 21.1424 19.881 21.2545 19.9341L22.9655 16.3185C21.4831 15.617 19.7 15.7 18.0747 16.7758L20.2825 20.1113ZM21.2569 19.9352C22.4197 20.4836 24.01 20.1639 24.7375 18.8119L21.2151 16.9164C21.6116 16.1797 22.4321 16.0669 22.9631 16.3174L21.2569 19.9352ZM24.7369 18.8131C25.2245 17.9084 25.6174 16.9462 25.9042 15.9382L22.057 14.8433C21.85 15.5707 21.5669 16.2638 21.2158 16.9152L24.7369 18.8131ZM25.9054 15.9339C26.3138 14.4865 25.4332 13.1364 24.2014 12.7102L22.8935 16.4904C22.3155 16.2904 21.835 15.6301 22.0558 14.8476L25.9054 15.9339Z" fill="currentColor" mask="url(#path-1-inside-1_0_1)"/>
  <circle cx="12" cy="12" r="3" stroke="currentColor" stroke-width="2"/>
</svg>
  