<svg width="20" height="29" viewBox="0 0 20 29" fill="none"
  xmlns="http://www.w3.org/2000/svg">
  <path fill-rule="evenodd" clip-rule="evenodd" d="M11.5273 7.8826C11.8532 7.09562 12 6.45833 12 6C12 4.68292 11.6405 3.581 11.1643 2.86676C10.6789 2.13854 10.2278 2 10 2C9.77221 2 9.32116 2.13854 8.83568 2.86676C8.35952 3.581 8.00001 4.68292 8.00001 6C8.00001 6.45833 8.14679 7.09562 8.47277 7.8826C8.79021 8.64897 9.22854 9.44131 9.69173 10.1758C9.79476 10.3392 9.89796 10.4981 10 10.6514C10.1021 10.4981 10.2053 10.3392 10.3083 10.1758C10.7715 9.44131 11.2098 8.64897 11.5273 7.8826ZM11.2485 12.3668C12.4222 10.7038 14 8.08119 14 6C14 2.68629 12.2091 0 10 0C7.79087 0 6.00001 2.68629 6.00001 6C6.00001 8.08119 7.57782 10.7038 8.75154 12.3668C9.44664 13.3517 10 14 10 14C10 14 10.5534 13.3517 11.2485 12.3668Z" fill="currentColor"/>
  <path fill-rule="evenodd" clip-rule="evenodd" d="M8.04894 13.8751C7.86457 13.0435 7.61927 12.4373 7.35638 12.0618C6.60094 10.9829 5.6744 10.2865 4.87468 9.97456C4.05931 9.65649 3.61038 9.80171 3.42377 9.93238C3.23716 10.063 2.94716 10.4352 2.96716 11.3102C2.98679 12.1684 3.32433 13.2773 4.07977 14.3561C4.34266 14.7316 4.82843 15.1694 5.54685 15.6271C6.24645 16.0728 7.05999 16.4704 7.86071 16.8064C8.03882 16.8812 8.21447 16.9521 8.386 17.0192C8.38166 16.8351 8.37508 16.6457 8.36576 16.4528C8.32388 15.5855 8.22848 14.685 8.04894 13.8751ZM10.3926 17.7083C10.4002 15.6728 10.1884 12.6195 8.99469 10.9147C7.09402 8.20025 4.08624 7.02696 2.27662 8.29407C0.466998 9.56118 0.540804 12.7889 2.44147 15.5033C3.63519 17.2081 6.43192 18.4514 8.34724 19.1405C9.48153 19.5485 10.3067 19.7622 10.3067 19.7622C10.3067 19.7622 10.3881 18.9137 10.3926 17.7083Z" fill="currentColor"/>
  <path fill-rule="evenodd" clip-rule="evenodd" d="M8.04894 21.8751C7.86457 21.0435 7.61927 20.4373 7.35638 20.0618C6.60094 18.9829 5.6744 18.2865 4.87468 17.9746C4.05931 17.6565 3.61038 17.8017 3.42377 17.9324C3.23716 18.063 2.94716 18.4352 2.96716 19.3102C2.98679 20.1684 3.32433 21.2773 4.07977 22.3561C4.34266 22.7316 4.82843 23.1694 5.54685 23.6271C6.24645 24.0728 7.05999 24.4704 7.86071 24.8064C8.03882 24.8812 8.21447 24.9521 8.386 25.0192C8.38166 24.8351 8.37508 24.6457 8.36576 24.4528C8.32388 23.5854 8.22848 22.685 8.04894 21.8751ZM10.3926 25.7083C10.4002 23.6728 10.1884 20.6195 8.99469 18.9147C7.09402 16.2002 4.08624 15.027 2.27662 16.2941C0.466998 17.5612 0.540804 20.7889 2.44147 23.5033C3.63519 25.2081 6.43192 26.4514 8.34724 27.1405C9.48153 27.5485 10.3067 27.7622 10.3067 27.7622C10.3067 27.7622 10.3881 26.9137 10.3926 25.7083Z" fill="currentColor"/>
  <path fill-rule="evenodd" clip-rule="evenodd" d="M14.4566 23.6273C15.175 23.1697 15.6608 22.7318 15.9237 22.3564C16.6791 21.2775 17.0166 20.1686 17.0363 19.3104C17.0563 18.4355 16.7663 18.0633 16.5797 17.9326C16.3931 17.8019 15.9441 17.6567 15.1287 17.9748C14.329 18.2867 13.4025 18.9832 12.6471 20.0621C12.3842 20.4375 12.1389 21.0437 11.9545 21.8754C11.775 22.6852 11.6795 23.5857 11.6377 24.453C11.6284 24.646 11.6218 24.8353 11.6174 25.0194C11.789 24.9524 11.9646 24.8814 12.1427 24.8067C12.9434 24.4707 13.757 24.073 14.4566 23.6273ZM11.6562 27.1407C13.5715 26.4517 16.3682 25.2083 17.562 23.5035C19.4626 20.7891 19.5364 17.5614 17.7268 16.2943C15.9172 15.0272 12.9094 16.2005 11.0087 18.9149C9.81503 20.6197 9.60323 23.673 9.61081 25.7085C9.61531 26.914 9.69674 27.7624 9.69674 27.7624C9.69674 27.7624 10.5219 27.5488 11.6562 27.1407Z" fill="currentColor"/>
  <path fill-rule="evenodd" clip-rule="evenodd" d="M14.4566 15.6273C15.175 15.1697 15.6608 14.7318 15.9237 14.3564C16.6791 13.2775 17.0166 12.1686 17.0363 11.3104C17.0563 10.4355 16.7663 10.0633 16.5797 9.93261C16.3931 9.80195 15.9441 9.65672 15.1287 9.97479C14.329 10.2867 13.4025 10.9832 12.6471 12.0621C12.3842 12.4375 12.1389 13.0437 11.9545 13.8754C11.775 14.6852 11.6795 15.5857 11.6377 16.453C11.6284 16.646 11.6218 16.8353 11.6174 17.0194C11.789 16.9524 11.9646 16.8814 12.1427 16.8067C12.9434 16.4707 13.757 16.073 14.4566 15.6273ZM11.6562 19.1407C13.5715 18.4517 16.3682 17.2083 17.562 15.5035C19.4626 12.7891 19.5364 9.56142 17.7268 8.29431C15.9172 7.0272 12.9094 8.20048 11.0087 10.9149C9.81503 12.6197 9.60323 15.673 9.61081 17.7085C9.61531 18.914 9.69674 19.7624 9.69674 19.7624C9.69674 19.7624 10.5219 19.5488 11.6562 19.1407Z" fill="currentColor"/>
  <path d="M9.00001 14H11V26H9.00001V14Z" fill="currentColor"/>
  <rect x="9.25" y="27" width="1.5" height="2" rx="0.75" fill="currentColor"/>
</svg>
  