<svg width="28" height="26" viewBox="0 0 28 26" fill="none"
  xmlns="http://www.w3.org/2000/svg">
  <path fill-rule="evenodd" clip-rule="evenodd" d="M7.96358 25.0311L1.56647 22.951C1.07989 22.7928 0.791235 22.2928 0.8975 21.7923L2.29461 15.2122L4.251 15.6276L3.32023 20.0113L10.902 15.634L11.902 17.366L4.32023 21.7433L8.58204 23.1291L7.96358 25.0311Z" fill="currentColor"/>
  <path fill-rule="evenodd" clip-rule="evenodd" d="M15.7321 14C15.1798 13.0434 13.9566 12.7157 13.0001 13.268C12.0435 13.8202 11.7157 15.0434 12.268 16C12.8203 16.9566 14.0435 17.2843 15.0001 16.7321C15.9566 16.1798 16.2844 14.9566 15.7321 14ZM17.4642 13C17.2915 12.701 17.0861 12.4327 16.855 12.197C15.6079 10.9249 13.6142 10.604 12.0001 11.5359C10.0869 12.6405 9.43139 15.0868 10.536 17C11.6405 18.9132 14.0869 19.5687 16.0001 18.4641C17.6142 17.5322 18.3331 15.6452 17.855 13.9291C17.7665 13.6111 17.6368 13.299 17.4642 13Z" fill="currentColor"/>
  <path fill-rule="evenodd" clip-rule="evenodd" d="M16.855 12.197L16.0981 12.634L17.0981 14.366L17.855 13.9291C17.7665 13.6111 17.6368 13.299 17.4642 13C17.2915 12.701 17.0861 12.4327 16.855 12.197Z" fill="currentColor"/>
  <path fill-rule="evenodd" clip-rule="evenodd" d="M25.7055 15.2122L27.1026 21.7923C27.2089 22.2928 26.9202 22.7928 26.4336 22.951L20.0365 25.0311L19.4181 23.1292L23.6799 21.7434L16.0981 17.366L17.0981 15.634L24.6799 20.0113L23.7491 15.6276L25.7055 15.2122Z" fill="currentColor"/>
  <path fill-rule="evenodd" clip-rule="evenodd" d="M12.268 14C11.7157 14.9566 12.0435 16.1798 13.0001 16.7321C13.9566 17.2843 15.1798 16.9566 15.7321 16C16.2844 15.0434 15.9566 13.8202 15.0001 13.268C14.0435 12.7157 12.8203 13.0434 12.268 14ZM10.536 13C10.3633 13.299 10.2337 13.6111 10.1451 13.929C9.66702 15.6451 10.3859 17.5322 12.0001 18.4641C13.9132 19.5687 16.3596 18.9132 17.4642 17C18.5687 15.0868 17.9132 12.6405 16.0001 11.5359C14.3859 10.604 12.3923 10.9249 11.1451 12.197C10.914 12.4326 10.7086 12.701 10.536 13Z" fill="currentColor"/>
  <path fill-rule="evenodd" clip-rule="evenodd" d="M10.1451 13.929L10.902 14.366L11.902 12.634L11.1451 12.197C10.914 12.4326 10.7086 12.701 10.536 13C10.3633 13.299 10.2337 13.6111 10.1451 13.929Z" fill="currentColor"/>
  <path fill-rule="evenodd" clip-rule="evenodd" d="M8.33108 4.75671L13.3311 0.256706C13.7114 -0.0855687 14.2887 -0.0855687 14.669 0.256706L19.669 4.75671L18.3311 6.24329L15 3.24536V12H13V3.24536L9.66901 6.24329L8.33108 4.75671Z" fill="currentColor"/>
  <path fill-rule="evenodd" clip-rule="evenodd" d="M14 17C15.1046 17 16 16.1046 16 15C16 13.8954 15.1046 13 14 13C12.8955 13 12 13.8954 12 15C12 16.1046 12.8955 17 14 17ZM14 19C14.3453 19 14.6804 18.9562 15 18.874C16.7252 18.43 18 16.8638 18 15C18 12.7909 16.2092 11 14 11C11.7909 11 10 12.7909 10 15C10 16.8638 11.2748 18.4299 13 18.874C13.3196 18.9562 13.6547 19 14 19Z" fill="currentColor"/>
  <path fill-rule="evenodd" clip-rule="evenodd" d="M15 18.874V18H13V18.874C13.3196 18.9562 13.6547 19 14 19C14.3453 19 14.6804 18.9562 15 18.874Z" fill="currentColor"/>
</svg>
  